<mxfile host="app.diagrams.net" modified="2021-09-23T14:18:06.056Z" agent="5.0 (Windows NT 10.0; Win64; x64) AppleWebKit/537.36 (KHTML, like Gecko) Chrome/93.0.4577.82 Safari/537.36" etag="Xw6757BRUK3N1QovH3Oy" version="15.2.9" type="github">
  <diagram id="8TIHdMgw7f7m4qareFLq" name="Page-1">
    <mxGraphModel dx="1422" dy="1963" grid="1" gridSize="10" guides="1" tooltips="1" connect="1" arrows="1" fold="1" page="1" pageScale="1" pageWidth="827" pageHeight="1169" math="0" shadow="0">
      <root>
        <mxCell id="0" />
        <mxCell id="1" parent="0" />
        <mxCell id="4vl9060Z3yc6cErM1NKJ-1" value="Receber necessidade" style="rounded=1;whiteSpace=wrap;html=1;" parent="1" vertex="1">
          <mxGeometry x="340" y="-1150" width="120" height="30" as="geometry" />
        </mxCell>
        <mxCell id="4vl9060Z3yc6cErM1NKJ-2" value="Realizar programação" style="rounded=0;whiteSpace=wrap;html=1;" parent="1" vertex="1">
          <mxGeometry x="340" y="-1099" width="120" height="30" as="geometry" />
        </mxCell>
        <mxCell id="4vl9060Z3yc6cErM1NKJ-3" value="Trefilar vergalhão?" style="rhombus;whiteSpace=wrap;html=1;" parent="1" vertex="1">
          <mxGeometry x="355" y="-980" width="90" height="70" as="geometry" />
        </mxCell>
        <mxCell id="4vl9060Z3yc6cErM1NKJ-4" value="Trefilar vergalhão" style="rounded=0;whiteSpace=wrap;html=1;" parent="1" vertex="1">
          <mxGeometry x="160" y="-910" width="120" height="30" as="geometry" />
        </mxCell>
        <mxCell id="4vl9060Z3yc6cErM1NKJ-5" value="Trefilar retangular" style="rounded=0;whiteSpace=wrap;html=1;" parent="1" vertex="1">
          <mxGeometry x="270" y="-240" width="120" height="30" as="geometry" />
        </mxCell>
        <mxCell id="4vl9060Z3yc6cErM1NKJ-6" value="Laminar?" style="rhombus;whiteSpace=wrap;html=1;" parent="1" vertex="1">
          <mxGeometry x="180" y="-450" width="80" height="50" as="geometry" />
        </mxCell>
        <mxCell id="4vl9060Z3yc6cErM1NKJ-7" value="Trefilar Circular" style="rounded=0;whiteSpace=wrap;html=1;" parent="1" vertex="1">
          <mxGeometry x="90" y="-380" width="120" height="30" as="geometry" />
        </mxCell>
        <mxCell id="4vl9060Z3yc6cErM1NKJ-8" value="" style="endArrow=classic;html=1;exitX=0.5;exitY=1;exitDx=0;exitDy=0;entryX=0.5;entryY=0;entryDx=0;entryDy=0;entryPerimeter=0;" parent="1" source="4vl9060Z3yc6cErM1NKJ-1" edge="1" target="4vl9060Z3yc6cErM1NKJ-2">
          <mxGeometry width="50" height="50" relative="1" as="geometry">
            <mxPoint x="400" y="-700" as="sourcePoint" />
            <mxPoint x="400" y="-1100" as="targetPoint" />
          </mxGeometry>
        </mxCell>
        <mxCell id="4vl9060Z3yc6cErM1NKJ-9" value="" style="endArrow=classic;html=1;exitX=0.5;exitY=1;exitDx=0;exitDy=0;entryX=0.5;entryY=0;entryDx=0;entryDy=0;" parent="1" source="4vl9060Z3yc6cErM1NKJ-2" target="KP5nR9XHb_QmgsPb0Zhl-1" edge="1">
          <mxGeometry width="50" height="50" relative="1" as="geometry">
            <mxPoint x="410" y="-1090" as="sourcePoint" />
            <mxPoint x="400" y="-1040" as="targetPoint" />
          </mxGeometry>
        </mxCell>
        <mxCell id="4vl9060Z3yc6cErM1NKJ-11" value="Sim" style="text;html=1;strokeColor=none;fillColor=none;align=center;verticalAlign=middle;whiteSpace=wrap;rounded=0;" parent="1" vertex="1">
          <mxGeometry x="330" y="-970" width="40" height="20" as="geometry" />
        </mxCell>
        <mxCell id="4vl9060Z3yc6cErM1NKJ-13" value="" style="endArrow=classic;html=1;exitX=0.5;exitY=1;exitDx=0;exitDy=0;entryX=0.5;entryY=0;entryDx=0;entryDy=0;" parent="1" source="KP5nR9XHb_QmgsPb0Zhl-1" target="4vl9060Z3yc6cErM1NKJ-3" edge="1">
          <mxGeometry width="50" height="50" relative="1" as="geometry">
            <mxPoint x="220" y="-880" as="sourcePoint" />
            <mxPoint x="470" y="-860" as="targetPoint" />
          </mxGeometry>
        </mxCell>
        <mxCell id="4vl9060Z3yc6cErM1NKJ-14" value="Não" style="text;html=1;strokeColor=none;fillColor=none;align=center;verticalAlign=middle;whiteSpace=wrap;rounded=0;" parent="1" vertex="1">
          <mxGeometry x="430" y="-970" width="40" height="20" as="geometry" />
        </mxCell>
        <mxCell id="4vl9060Z3yc6cErM1NKJ-16" value="" style="endArrow=classic;html=1;exitX=0;exitY=0.5;exitDx=0;exitDy=0;entryX=0.5;entryY=0;entryDx=0;entryDy=0;" parent="1" source="4vl9060Z3yc6cErM1NKJ-6" target="4vl9060Z3yc6cErM1NKJ-7" edge="1">
          <mxGeometry width="50" height="50" relative="1" as="geometry">
            <mxPoint x="420" y="-480" as="sourcePoint" />
            <mxPoint x="470" y="-530" as="targetPoint" />
            <Array as="points">
              <mxPoint x="150" y="-425" />
            </Array>
          </mxGeometry>
        </mxCell>
        <mxCell id="4vl9060Z3yc6cErM1NKJ-17" value="Não" style="text;html=1;strokeColor=none;fillColor=none;align=center;verticalAlign=middle;whiteSpace=wrap;rounded=0;" parent="1" vertex="1">
          <mxGeometry x="150" y="-450" width="40" height="20" as="geometry" />
        </mxCell>
        <mxCell id="4vl9060Z3yc6cErM1NKJ-19" value="Laminação" style="rounded=0;whiteSpace=wrap;html=1;" parent="1" vertex="1">
          <mxGeometry x="310" y="-390" width="120" height="30" as="geometry" />
        </mxCell>
        <mxCell id="4vl9060Z3yc6cErM1NKJ-20" value="" style="endArrow=classic;html=1;exitX=1;exitY=0.5;exitDx=0;exitDy=0;entryX=0.5;entryY=0;entryDx=0;entryDy=0;" parent="1" source="4vl9060Z3yc6cErM1NKJ-6" target="4vl9060Z3yc6cErM1NKJ-19" edge="1">
          <mxGeometry width="50" height="50" relative="1" as="geometry">
            <mxPoint x="420" y="-400" as="sourcePoint" />
            <mxPoint x="470" y="-450" as="targetPoint" />
            <Array as="points">
              <mxPoint x="370" y="-425" />
            </Array>
          </mxGeometry>
        </mxCell>
        <mxCell id="4vl9060Z3yc6cErM1NKJ-21" value="Sim" style="text;html=1;strokeColor=none;fillColor=none;align=center;verticalAlign=middle;whiteSpace=wrap;rounded=0;" parent="1" vertex="1">
          <mxGeometry x="250" y="-450" width="40" height="20" as="geometry" />
        </mxCell>
        <mxCell id="4vl9060Z3yc6cErM1NKJ-23" value="" style="endArrow=classic;html=1;exitX=1;exitY=0.5;exitDx=0;exitDy=0;entryX=0.5;entryY=0;entryDx=0;entryDy=0;" parent="1" source="4vl9060Z3yc6cErM1NKJ-3" edge="1">
          <mxGeometry width="50" height="50" relative="1" as="geometry">
            <mxPoint x="420" y="-730" as="sourcePoint" />
            <mxPoint x="640" y="-910" as="targetPoint" />
            <Array as="points">
              <mxPoint x="640" y="-945" />
            </Array>
          </mxGeometry>
        </mxCell>
        <mxCell id="4vl9060Z3yc6cErM1NKJ-25" value="Trefilar?" style="rhombus;whiteSpace=wrap;html=1;" parent="1" vertex="1">
          <mxGeometry x="410" y="-320" width="80" height="50" as="geometry" />
        </mxCell>
        <mxCell id="4vl9060Z3yc6cErM1NKJ-26" value="Trefilar trapezoidal" style="rounded=0;whiteSpace=wrap;html=1;" parent="1" vertex="1">
          <mxGeometry x="400" y="-240" width="120" height="30" as="geometry" />
        </mxCell>
        <mxCell id="4vl9060Z3yc6cErM1NKJ-27" value="Cortar barra" style="rounded=0;whiteSpace=wrap;html=1;" parent="1" vertex="1">
          <mxGeometry x="544" y="-110" width="120" height="30" as="geometry" />
        </mxCell>
        <mxCell id="4vl9060Z3yc6cErM1NKJ-28" value="" style="endArrow=classic;html=1;entryX=0.425;entryY=0.06;entryDx=0;entryDy=0;exitX=0.5;exitY=1;exitDx=0;exitDy=0;entryPerimeter=0;" parent="1" source="4vl9060Z3yc6cErM1NKJ-19" target="4vl9060Z3yc6cErM1NKJ-25" edge="1">
          <mxGeometry width="50" height="50" relative="1" as="geometry">
            <mxPoint x="470" y="-250" as="sourcePoint" />
            <mxPoint x="470" y="-280" as="targetPoint" />
            <Array as="points">
              <mxPoint x="370" y="-340" />
              <mxPoint x="444" y="-340" />
            </Array>
          </mxGeometry>
        </mxCell>
        <mxCell id="4vl9060Z3yc6cErM1NKJ-29" value="" style="endArrow=classic;html=1;exitX=0;exitY=0.5;exitDx=0;exitDy=0;entryX=0.5;entryY=0;entryDx=0;entryDy=0;" parent="1" source="4vl9060Z3yc6cErM1NKJ-25" target="4vl9060Z3yc6cErM1NKJ-5" edge="1">
          <mxGeometry width="50" height="50" relative="1" as="geometry">
            <mxPoint x="420" y="-230" as="sourcePoint" />
            <mxPoint x="470" y="-280" as="targetPoint" />
            <Array as="points">
              <mxPoint x="330" y="-295" />
            </Array>
          </mxGeometry>
        </mxCell>
        <mxCell id="4vl9060Z3yc6cErM1NKJ-30" value="" style="endArrow=classic;html=1;exitX=1;exitY=0.5;exitDx=0;exitDy=0;entryX=0.5;entryY=0;entryDx=0;entryDy=0;" parent="1" source="4vl9060Z3yc6cErM1NKJ-25" target="4vl9060Z3yc6cErM1NKJ-27" edge="1">
          <mxGeometry width="50" height="50" relative="1" as="geometry">
            <mxPoint x="420" y="-230" as="sourcePoint" />
            <mxPoint x="700" y="-180" as="targetPoint" />
            <Array as="points">
              <mxPoint x="604" y="-295" />
            </Array>
          </mxGeometry>
        </mxCell>
        <mxCell id="4vl9060Z3yc6cErM1NKJ-31" value="" style="endArrow=classic;html=1;entryX=0.25;entryY=0;entryDx=0;entryDy=0;" parent="1" target="4vl9060Z3yc6cErM1NKJ-26" edge="1">
          <mxGeometry width="50" height="50" relative="1" as="geometry">
            <mxPoint x="360" y="-295" as="sourcePoint" />
            <mxPoint x="470" y="-30" as="targetPoint" />
            <Array as="points">
              <mxPoint x="360" y="-260" />
              <mxPoint x="430" y="-260" />
            </Array>
          </mxGeometry>
        </mxCell>
        <mxCell id="4vl9060Z3yc6cErM1NKJ-32" value="Esmaltar?" style="rhombus;whiteSpace=wrap;html=1;" parent="1" vertex="1">
          <mxGeometry x="290" y="-180" width="80" height="60" as="geometry" />
        </mxCell>
        <mxCell id="WQl8gfTA_FYCjoSk9qWl-1" value="Sim" style="text;html=1;strokeColor=none;fillColor=none;align=center;verticalAlign=middle;whiteSpace=wrap;rounded=0;" parent="1" vertex="1">
          <mxGeometry x="380" y="-320" width="40" height="20" as="geometry" />
        </mxCell>
        <mxCell id="WQl8gfTA_FYCjoSk9qWl-2" value="Não" style="text;html=1;strokeColor=none;fillColor=none;align=center;verticalAlign=middle;whiteSpace=wrap;rounded=0;" parent="1" vertex="1">
          <mxGeometry x="480" y="-320" width="40" height="20" as="geometry" />
        </mxCell>
        <mxCell id="WQl8gfTA_FYCjoSk9qWl-3" value="" style="endArrow=classic;html=1;exitX=0.5;exitY=1;exitDx=0;exitDy=0;entryX=0.5;entryY=0;entryDx=0;entryDy=0;" parent="1" source="4vl9060Z3yc6cErM1NKJ-5" target="4vl9060Z3yc6cErM1NKJ-32" edge="1">
          <mxGeometry width="50" height="50" relative="1" as="geometry">
            <mxPoint x="420" y="-30" as="sourcePoint" />
            <mxPoint x="470" y="-80" as="targetPoint" />
          </mxGeometry>
        </mxCell>
        <mxCell id="WQl8gfTA_FYCjoSk9qWl-4" value="Esmaltação" style="rounded=0;whiteSpace=wrap;html=1;" parent="1" vertex="1">
          <mxGeometry x="200" y="-110" width="120" height="30" as="geometry" />
        </mxCell>
        <mxCell id="WQl8gfTA_FYCjoSk9qWl-5" value="" style="endArrow=classic;html=1;exitX=0;exitY=0.5;exitDx=0;exitDy=0;entryX=0.5;entryY=0;entryDx=0;entryDy=0;" parent="1" source="4vl9060Z3yc6cErM1NKJ-32" target="WQl8gfTA_FYCjoSk9qWl-4" edge="1">
          <mxGeometry width="50" height="50" relative="1" as="geometry">
            <mxPoint x="420" y="40" as="sourcePoint" />
            <mxPoint x="470" y="-10" as="targetPoint" />
            <Array as="points">
              <mxPoint x="260" y="-150" />
            </Array>
          </mxGeometry>
        </mxCell>
        <mxCell id="WQl8gfTA_FYCjoSk9qWl-6" value="Sim" style="text;html=1;strokeColor=none;fillColor=none;align=center;verticalAlign=middle;whiteSpace=wrap;rounded=0;" parent="1" vertex="1">
          <mxGeometry x="260" y="-170" width="40" height="20" as="geometry" />
        </mxCell>
        <mxCell id="WQl8gfTA_FYCjoSk9qWl-7" value="Não" style="text;html=1;strokeColor=none;fillColor=none;align=center;verticalAlign=middle;whiteSpace=wrap;rounded=0;" parent="1" vertex="1">
          <mxGeometry x="360" y="-170" width="40" height="20" as="geometry" />
        </mxCell>
        <mxCell id="WQl8gfTA_FYCjoSk9qWl-8" value="Avaliar fios" style="rounded=0;whiteSpace=wrap;html=1;" parent="1" vertex="1">
          <mxGeometry x="200" y="-50" width="120" height="30" as="geometry" />
        </mxCell>
        <mxCell id="WQl8gfTA_FYCjoSk9qWl-9" value="" style="endArrow=classic;html=1;exitX=0.5;exitY=1;exitDx=0;exitDy=0;entryX=0.5;entryY=0;entryDx=0;entryDy=0;" parent="1" source="WQl8gfTA_FYCjoSk9qWl-4" target="WQl8gfTA_FYCjoSk9qWl-8" edge="1">
          <mxGeometry width="50" height="50" relative="1" as="geometry">
            <mxPoint x="420" y="180" as="sourcePoint" />
            <mxPoint x="470" y="130" as="targetPoint" />
          </mxGeometry>
        </mxCell>
        <mxCell id="WQl8gfTA_FYCjoSk9qWl-10" value="Aprovado?" style="rhombus;whiteSpace=wrap;html=1;" parent="1" vertex="1">
          <mxGeometry x="220" y="10" width="80" height="60" as="geometry" />
        </mxCell>
        <mxCell id="WQl8gfTA_FYCjoSk9qWl-11" value="" style="endArrow=classic;html=1;exitX=0.5;exitY=1;exitDx=0;exitDy=0;entryX=0.5;entryY=0;entryDx=0;entryDy=0;" parent="1" source="WQl8gfTA_FYCjoSk9qWl-8" target="WQl8gfTA_FYCjoSk9qWl-10" edge="1">
          <mxGeometry width="50" height="50" relative="1" as="geometry">
            <mxPoint x="420" y="310" as="sourcePoint" />
            <mxPoint x="470" y="260" as="targetPoint" />
          </mxGeometry>
        </mxCell>
        <mxCell id="WQl8gfTA_FYCjoSk9qWl-12" value="Sim" style="text;html=1;strokeColor=none;fillColor=none;align=center;verticalAlign=middle;whiteSpace=wrap;rounded=0;" parent="1" vertex="1">
          <mxGeometry x="190" y="20" width="40" height="20" as="geometry" />
        </mxCell>
        <mxCell id="WQl8gfTA_FYCjoSk9qWl-13" value="Não" style="text;html=1;strokeColor=none;fillColor=none;align=center;verticalAlign=middle;whiteSpace=wrap;rounded=0;" parent="1" vertex="1">
          <mxGeometry x="290" y="20" width="40" height="20" as="geometry" />
        </mxCell>
        <mxCell id="WQl8gfTA_FYCjoSk9qWl-14" value="Recuperar" style="rounded=0;whiteSpace=wrap;html=1;" parent="1" vertex="1">
          <mxGeometry x="330" y="25" width="120" height="30" as="geometry" />
        </mxCell>
        <mxCell id="WQl8gfTA_FYCjoSk9qWl-15" value="" style="endArrow=classic;html=1;exitX=1;exitY=0.5;exitDx=0;exitDy=0;entryX=0;entryY=0.5;entryDx=0;entryDy=0;" parent="1" source="WQl8gfTA_FYCjoSk9qWl-10" target="WQl8gfTA_FYCjoSk9qWl-14" edge="1">
          <mxGeometry width="50" height="50" relative="1" as="geometry">
            <mxPoint x="420" y="310" as="sourcePoint" />
            <mxPoint x="470" y="260" as="targetPoint" />
          </mxGeometry>
        </mxCell>
        <mxCell id="WQl8gfTA_FYCjoSk9qWl-16" value="" style="endArrow=classic;html=1;exitX=0.5;exitY=0;exitDx=0;exitDy=0;entryX=1;entryY=0.5;entryDx=0;entryDy=0;" parent="1" source="WQl8gfTA_FYCjoSk9qWl-14" target="WQl8gfTA_FYCjoSk9qWl-8" edge="1">
          <mxGeometry width="50" height="50" relative="1" as="geometry">
            <mxPoint x="420" y="310" as="sourcePoint" />
            <mxPoint x="470" y="260" as="targetPoint" />
            <Array as="points">
              <mxPoint x="390" y="-35" />
            </Array>
          </mxGeometry>
        </mxCell>
        <mxCell id="WQl8gfTA_FYCjoSk9qWl-17" value="Encapar?" style="rhombus;whiteSpace=wrap;html=1;" parent="1" vertex="1">
          <mxGeometry x="220" y="110" width="80" height="50" as="geometry" />
        </mxCell>
        <mxCell id="WQl8gfTA_FYCjoSk9qWl-18" value="" style="endArrow=classic;html=1;exitX=0.5;exitY=1;exitDx=0;exitDy=0;" parent="1" source="WQl8gfTA_FYCjoSk9qWl-10" target="WQl8gfTA_FYCjoSk9qWl-17" edge="1">
          <mxGeometry width="50" height="50" relative="1" as="geometry">
            <mxPoint x="420" y="310" as="sourcePoint" />
            <mxPoint x="470" y="260" as="targetPoint" />
          </mxGeometry>
        </mxCell>
        <mxCell id="WQl8gfTA_FYCjoSk9qWl-19" value="Encapamento" style="rounded=0;whiteSpace=wrap;html=1;" parent="1" vertex="1">
          <mxGeometry x="325" y="170" width="120" height="30" as="geometry" />
        </mxCell>
        <mxCell id="WQl8gfTA_FYCjoSk9qWl-20" value="" style="endArrow=classic;html=1;exitX=1;exitY=0.5;exitDx=0;exitDy=0;entryX=0.5;entryY=0;entryDx=0;entryDy=0;" parent="1" source="WQl8gfTA_FYCjoSk9qWl-17" target="WQl8gfTA_FYCjoSk9qWl-19" edge="1">
          <mxGeometry width="50" height="50" relative="1" as="geometry">
            <mxPoint x="420" y="450" as="sourcePoint" />
            <mxPoint x="470" y="400" as="targetPoint" />
            <Array as="points">
              <mxPoint x="384" y="135" />
            </Array>
          </mxGeometry>
        </mxCell>
        <mxCell id="WQl8gfTA_FYCjoSk9qWl-21" value="Sim" style="text;html=1;strokeColor=none;fillColor=none;align=center;verticalAlign=middle;whiteSpace=wrap;rounded=0;" parent="1" vertex="1">
          <mxGeometry x="290" y="110" width="40" height="20" as="geometry" />
        </mxCell>
        <mxCell id="WQl8gfTA_FYCjoSk9qWl-22" value="não" style="text;html=1;strokeColor=none;fillColor=none;align=center;verticalAlign=middle;whiteSpace=wrap;rounded=0;" parent="1" vertex="1">
          <mxGeometry x="190" y="110" width="40" height="20" as="geometry" />
        </mxCell>
        <mxCell id="WQl8gfTA_FYCjoSk9qWl-23" value="Aprovado?" style="rhombus;whiteSpace=wrap;html=1;" parent="1" vertex="1">
          <mxGeometry x="350" y="330" width="80" height="61" as="geometry" />
        </mxCell>
        <mxCell id="WQl8gfTA_FYCjoSk9qWl-24" value="Avaliar fios" style="rounded=0;whiteSpace=wrap;html=1;" parent="1" vertex="1">
          <mxGeometry x="330" y="230" width="120" height="30" as="geometry" />
        </mxCell>
        <mxCell id="WQl8gfTA_FYCjoSk9qWl-25" value="" style="endArrow=classic;html=1;exitX=0.5;exitY=1;exitDx=0;exitDy=0;entryX=0.467;entryY=0;entryDx=0;entryDy=0;entryPerimeter=0;" parent="1" source="WQl8gfTA_FYCjoSk9qWl-19" target="WQl8gfTA_FYCjoSk9qWl-24" edge="1">
          <mxGeometry width="50" height="50" relative="1" as="geometry">
            <mxPoint x="420" y="590" as="sourcePoint" />
            <mxPoint x="440" y="550" as="targetPoint" />
          </mxGeometry>
        </mxCell>
        <mxCell id="WQl8gfTA_FYCjoSk9qWl-26" value="" style="endArrow=classic;html=1;exitX=0.5;exitY=1;exitDx=0;exitDy=0;entryX=0.5;entryY=0;entryDx=0;entryDy=0;" parent="1" source="WQl8gfTA_FYCjoSk9qWl-24" target="WQl8gfTA_FYCjoSk9qWl-23" edge="1">
          <mxGeometry width="50" height="50" relative="1" as="geometry">
            <mxPoint x="300" y="660" as="sourcePoint" />
            <mxPoint x="350" y="610" as="targetPoint" />
          </mxGeometry>
        </mxCell>
        <mxCell id="WQl8gfTA_FYCjoSk9qWl-27" value="Recuperar" style="rounded=0;whiteSpace=wrap;html=1;" parent="1" vertex="1">
          <mxGeometry x="430" y="280" width="120" height="31" as="geometry" />
        </mxCell>
        <mxCell id="WQl8gfTA_FYCjoSk9qWl-28" value="" style="endArrow=classic;html=1;exitX=1;exitY=0.5;exitDx=0;exitDy=0;" parent="1" source="WQl8gfTA_FYCjoSk9qWl-23" target="WQl8gfTA_FYCjoSk9qWl-27" edge="1">
          <mxGeometry width="50" height="50" relative="1" as="geometry">
            <mxPoint x="300" y="640" as="sourcePoint" />
            <mxPoint x="350" y="590" as="targetPoint" />
            <Array as="points">
              <mxPoint x="488" y="360" />
            </Array>
          </mxGeometry>
        </mxCell>
        <mxCell id="WQl8gfTA_FYCjoSk9qWl-29" value="" style="endArrow=classic;html=1;exitX=0.5;exitY=0;exitDx=0;exitDy=0;entryX=1;entryY=0.5;entryDx=0;entryDy=0;" parent="1" source="WQl8gfTA_FYCjoSk9qWl-27" target="WQl8gfTA_FYCjoSk9qWl-24" edge="1">
          <mxGeometry width="50" height="50" relative="1" as="geometry">
            <mxPoint x="300" y="660" as="sourcePoint" />
            <mxPoint x="350" y="610" as="targetPoint" />
            <Array as="points">
              <mxPoint x="490" y="245" />
            </Array>
          </mxGeometry>
        </mxCell>
        <mxCell id="WQl8gfTA_FYCjoSk9qWl-30" value="Pesar carreteis" style="rounded=0;whiteSpace=wrap;html=1;" parent="1" vertex="1">
          <mxGeometry x="330" y="420" width="120" height="30" as="geometry" />
        </mxCell>
        <mxCell id="WQl8gfTA_FYCjoSk9qWl-31" value="Não" style="text;html=1;strokeColor=none;fillColor=none;align=center;verticalAlign=middle;whiteSpace=wrap;rounded=0;" parent="1" vertex="1">
          <mxGeometry x="420" y="339" width="40" height="20" as="geometry" />
        </mxCell>
        <mxCell id="WQl8gfTA_FYCjoSk9qWl-32" value="Sim" style="text;html=1;strokeColor=none;fillColor=none;align=center;verticalAlign=middle;whiteSpace=wrap;rounded=0;" parent="1" vertex="1">
          <mxGeometry x="390" y="391" width="40" height="20" as="geometry" />
        </mxCell>
        <mxCell id="WQl8gfTA_FYCjoSk9qWl-33" value="" style="endArrow=classic;html=1;entryX=0.5;entryY=0;entryDx=0;entryDy=0;exitX=0.5;exitY=1;exitDx=0;exitDy=0;" parent="1" source="WQl8gfTA_FYCjoSk9qWl-23" target="WQl8gfTA_FYCjoSk9qWl-30" edge="1">
          <mxGeometry width="50" height="50" relative="1" as="geometry">
            <mxPoint x="340" y="370" as="sourcePoint" />
            <mxPoint x="350" y="660" as="targetPoint" />
            <Array as="points" />
          </mxGeometry>
        </mxCell>
        <mxCell id="WQl8gfTA_FYCjoSk9qWl-34" value="Acondicionar carreteis" style="rounded=0;whiteSpace=wrap;html=1;" parent="1" vertex="1">
          <mxGeometry x="330" y="480" width="120" height="40" as="geometry" />
        </mxCell>
        <mxCell id="WQl8gfTA_FYCjoSk9qWl-35" value="Realizar apontamento" style="rounded=0;whiteSpace=wrap;html=1;" parent="1" vertex="1">
          <mxGeometry x="330" y="550" width="120" height="30" as="geometry" />
        </mxCell>
        <mxCell id="WQl8gfTA_FYCjoSk9qWl-36" value="" style="endArrow=classic;html=1;entryX=0.5;entryY=0;entryDx=0;entryDy=0;exitX=1;exitY=0.5;exitDx=0;exitDy=0;" parent="1" source="4vl9060Z3yc6cErM1NKJ-25" target="WQl8gfTA_FYCjoSk9qWl-37" edge="1">
          <mxGeometry width="50" height="50" relative="1" as="geometry">
            <mxPoint x="590" y="-300" as="sourcePoint" />
            <mxPoint x="690" y="740" as="targetPoint" />
            <Array as="points">
              <mxPoint x="680" y="-295" />
              <mxPoint x="680" y="-60" />
            </Array>
          </mxGeometry>
        </mxCell>
        <mxCell id="WQl8gfTA_FYCjoSk9qWl-37" value="Recozer fios" style="rounded=0;whiteSpace=wrap;html=1;" parent="1" vertex="1">
          <mxGeometry x="620" y="-50" width="120" height="30" as="geometry" />
        </mxCell>
        <mxCell id="WQl8gfTA_FYCjoSk9qWl-39" value="" style="endArrow=classic;html=1;exitX=0.5;exitY=1;exitDx=0;exitDy=0;entryX=1;entryY=0.25;entryDx=0;entryDy=0;" parent="1" source="4vl9060Z3yc6cErM1NKJ-27" target="WQl8gfTA_FYCjoSk9qWl-24" edge="1">
          <mxGeometry width="50" height="50" relative="1" as="geometry">
            <mxPoint x="290" y="-110" as="sourcePoint" />
            <mxPoint x="530" y="120" as="targetPoint" />
            <Array as="points">
              <mxPoint x="604" y="238" />
            </Array>
          </mxGeometry>
        </mxCell>
        <mxCell id="WQl8gfTA_FYCjoSk9qWl-40" value="" style="endArrow=classic;html=1;exitX=0.649;exitY=1.059;exitDx=0;exitDy=0;entryX=1;entryY=0.5;entryDx=0;entryDy=0;exitPerimeter=0;" parent="1" source="4vl9060Z3yc6cErM1NKJ-26" target="WQl8gfTA_FYCjoSk9qWl-19" edge="1">
          <mxGeometry width="50" height="50" relative="1" as="geometry">
            <mxPoint x="290" y="130" as="sourcePoint" />
            <mxPoint x="510" y="390" as="targetPoint" />
            <Array as="points">
              <mxPoint x="478" y="185" />
            </Array>
          </mxGeometry>
        </mxCell>
        <mxCell id="WQl8gfTA_FYCjoSk9qWl-41" value="" style="endArrow=classic;html=1;exitX=0.25;exitY=1;exitDx=0;exitDy=0;" parent="1" source="WQl8gfTA_FYCjoSk9qWl-7" edge="1">
          <mxGeometry width="50" height="50" relative="1" as="geometry">
            <mxPoint x="340" y="80" as="sourcePoint" />
            <mxPoint x="480" y="-150" as="targetPoint" />
          </mxGeometry>
        </mxCell>
        <mxCell id="WQl8gfTA_FYCjoSk9qWl-42" value="" style="endArrow=classic;html=1;entryX=0.5;entryY=0;entryDx=0;entryDy=0;exitX=0;exitY=0.5;exitDx=0;exitDy=0;" parent="1" source="4vl9060Z3yc6cErM1NKJ-3" edge="1">
          <mxGeometry width="50" height="50" relative="1" as="geometry">
            <mxPoint x="350" y="-950" as="sourcePoint" />
            <mxPoint x="220" y="-910" as="targetPoint" />
            <Array as="points">
              <mxPoint x="220" y="-945" />
            </Array>
          </mxGeometry>
        </mxCell>
        <mxCell id="WQl8gfTA_FYCjoSk9qWl-45" value="Enviar material" style="shape=document;whiteSpace=wrap;html=1;boundedLbl=1;" parent="1" vertex="1">
          <mxGeometry x="330" y="610" width="120" height="40" as="geometry" />
        </mxCell>
        <mxCell id="WQl8gfTA_FYCjoSk9qWl-47" value="Arquivar registro" style="rounded=1;whiteSpace=wrap;html=1;" parent="1" vertex="1">
          <mxGeometry x="330" y="680" width="120" height="40" as="geometry" />
        </mxCell>
        <mxCell id="WQl8gfTA_FYCjoSk9qWl-48" value="" style="endArrow=classic;html=1;exitX=0.5;exitY=1;exitDx=0;exitDy=0;" parent="1" source="WQl8gfTA_FYCjoSk9qWl-30" target="WQl8gfTA_FYCjoSk9qWl-34" edge="1">
          <mxGeometry width="50" height="50" relative="1" as="geometry">
            <mxPoint x="450" y="590" as="sourcePoint" />
            <mxPoint x="500" y="540" as="targetPoint" />
          </mxGeometry>
        </mxCell>
        <mxCell id="WQl8gfTA_FYCjoSk9qWl-51" value="" style="endArrow=classic;html=1;exitX=0.5;exitY=1;exitDx=0;exitDy=0;entryX=0.5;entryY=0;entryDx=0;entryDy=0;" parent="1" source="WQl8gfTA_FYCjoSk9qWl-34" target="WQl8gfTA_FYCjoSk9qWl-35" edge="1">
          <mxGeometry width="50" height="50" relative="1" as="geometry">
            <mxPoint x="450" y="580" as="sourcePoint" />
            <mxPoint x="500" y="530" as="targetPoint" />
          </mxGeometry>
        </mxCell>
        <mxCell id="WQl8gfTA_FYCjoSk9qWl-52" value="" style="endArrow=classic;html=1;exitX=0.5;exitY=1;exitDx=0;exitDy=0;" parent="1" source="WQl8gfTA_FYCjoSk9qWl-35" target="WQl8gfTA_FYCjoSk9qWl-45" edge="1">
          <mxGeometry width="50" height="50" relative="1" as="geometry">
            <mxPoint x="450" y="580" as="sourcePoint" />
            <mxPoint x="500" y="530" as="targetPoint" />
          </mxGeometry>
        </mxCell>
        <mxCell id="WQl8gfTA_FYCjoSk9qWl-53" value="" style="endArrow=classic;html=1;entryX=0.5;entryY=0;entryDx=0;entryDy=0;exitX=0.492;exitY=0.83;exitDx=0;exitDy=0;exitPerimeter=0;" parent="1" source="WQl8gfTA_FYCjoSk9qWl-45" edge="1">
          <mxGeometry width="50" height="50" relative="1" as="geometry">
            <mxPoint x="390" y="650" as="sourcePoint" />
            <mxPoint x="390" y="680" as="targetPoint" />
          </mxGeometry>
        </mxCell>
        <mxCell id="WQl8gfTA_FYCjoSk9qWl-55" value="" style="endArrow=classic;html=1;exitX=0.5;exitY=1;exitDx=0;exitDy=0;entryX=0;entryY=0.5;entryDx=0;entryDy=0;" parent="1" source="4vl9060Z3yc6cErM1NKJ-7" target="WQl8gfTA_FYCjoSk9qWl-8" edge="1">
          <mxGeometry width="50" height="50" relative="1" as="geometry">
            <mxPoint x="390" y="-160" as="sourcePoint" />
            <mxPoint x="440" y="-210" as="targetPoint" />
            <Array as="points">
              <mxPoint x="150" y="-35" />
            </Array>
          </mxGeometry>
        </mxCell>
        <mxCell id="WQl8gfTA_FYCjoSk9qWl-56" value="" style="endArrow=classic;html=1;exitX=0;exitY=0.5;exitDx=0;exitDy=0;entryX=0;entryY=0.5;entryDx=0;entryDy=0;" parent="1" source="WQl8gfTA_FYCjoSk9qWl-17" target="WQl8gfTA_FYCjoSk9qWl-24" edge="1">
          <mxGeometry width="50" height="50" relative="1" as="geometry">
            <mxPoint x="390" y="250" as="sourcePoint" />
            <mxPoint x="440" y="200" as="targetPoint" />
            <Array as="points">
              <mxPoint x="190" y="135" />
              <mxPoint x="190" y="245" />
            </Array>
          </mxGeometry>
        </mxCell>
        <mxCell id="6UsDdSZFErcFaP8cF_HN-4" value="Encapar?" style="rhombus;whiteSpace=wrap;html=1;" parent="1" vertex="1">
          <mxGeometry x="640" y="20" width="80" height="80" as="geometry" />
        </mxCell>
        <mxCell id="6UsDdSZFErcFaP8cF_HN-5" value="" style="endArrow=classic;html=1;exitX=0.5;exitY=1;exitDx=0;exitDy=0;entryX=0.5;entryY=0;entryDx=0;entryDy=0;" parent="1" source="WQl8gfTA_FYCjoSk9qWl-37" target="6UsDdSZFErcFaP8cF_HN-4" edge="1">
          <mxGeometry width="50" height="50" relative="1" as="geometry">
            <mxPoint x="400" y="100" as="sourcePoint" />
            <mxPoint x="680" y="90" as="targetPoint" />
          </mxGeometry>
        </mxCell>
        <mxCell id="6UsDdSZFErcFaP8cF_HN-7" value="" style="endArrow=classic;html=1;exitX=1;exitY=0.5;exitDx=0;exitDy=0;entryX=0.5;entryY=0;entryDx=0;entryDy=0;" parent="1" source="6UsDdSZFErcFaP8cF_HN-4" target="6UsDdSZFErcFaP8cF_HN-10" edge="1">
          <mxGeometry width="50" height="50" relative="1" as="geometry">
            <mxPoint x="710" y="230" as="sourcePoint" />
            <mxPoint x="730" y="290" as="targetPoint" />
            <Array as="points">
              <mxPoint x="760" y="60" />
            </Array>
          </mxGeometry>
        </mxCell>
        <mxCell id="6UsDdSZFErcFaP8cF_HN-8" value="Sim" style="text;html=1;strokeColor=none;fillColor=none;align=center;verticalAlign=middle;whiteSpace=wrap;rounded=0;" parent="1" vertex="1">
          <mxGeometry x="710" y="40" width="40" height="20" as="geometry" />
        </mxCell>
        <mxCell id="6UsDdSZFErcFaP8cF_HN-9" value="Não" style="text;html=1;strokeColor=none;fillColor=none;align=center;verticalAlign=middle;whiteSpace=wrap;rounded=0;" parent="1" vertex="1">
          <mxGeometry x="610" y="40" width="40" height="20" as="geometry" />
        </mxCell>
        <mxCell id="6UsDdSZFErcFaP8cF_HN-10" value="Encapamento" style="rounded=0;whiteSpace=wrap;html=1;" parent="1" vertex="1">
          <mxGeometry x="700" y="120" width="120" height="30" as="geometry" />
        </mxCell>
        <mxCell id="6UsDdSZFErcFaP8cF_HN-11" value="" style="endArrow=classic;html=1;exitX=0.75;exitY=1;exitDx=0;exitDy=0;entryX=1;entryY=0.5;entryDx=0;entryDy=0;" parent="1" source="6UsDdSZFErcFaP8cF_HN-9" target="WQl8gfTA_FYCjoSk9qWl-24" edge="1">
          <mxGeometry width="50" height="50" relative="1" as="geometry">
            <mxPoint x="400" y="170" as="sourcePoint" />
            <mxPoint x="450" y="120" as="targetPoint" />
            <Array as="points">
              <mxPoint x="620" y="60" />
              <mxPoint x="620" y="245" />
            </Array>
          </mxGeometry>
        </mxCell>
        <mxCell id="6UsDdSZFErcFaP8cF_HN-12" value="" style="endArrow=classic;html=1;exitX=0.5;exitY=1;exitDx=0;exitDy=0;entryX=1;entryY=0.5;entryDx=0;entryDy=0;" parent="1" source="6UsDdSZFErcFaP8cF_HN-10" target="WQl8gfTA_FYCjoSk9qWl-24" edge="1">
          <mxGeometry width="50" height="50" relative="1" as="geometry">
            <mxPoint x="400" y="170" as="sourcePoint" />
            <mxPoint x="450" y="120" as="targetPoint" />
            <Array as="points">
              <mxPoint x="760" y="245" />
            </Array>
          </mxGeometry>
        </mxCell>
        <mxCell id="6UsDdSZFErcFaP8cF_HN-17" value="Máquina parou?" style="rhombus;whiteSpace=wrap;html=1;" parent="1" vertex="1">
          <mxGeometry x="180" y="-850" width="80" height="60" as="geometry" />
        </mxCell>
        <mxCell id="6UsDdSZFErcFaP8cF_HN-18" value="" style="endArrow=classic;html=1;exitX=1;exitY=0.5;exitDx=0;exitDy=0;entryX=0.5;entryY=0;entryDx=0;entryDy=0;" parent="1" source="6UsDdSZFErcFaP8cF_HN-17" target="6UsDdSZFErcFaP8cF_HN-22" edge="1">
          <mxGeometry width="50" height="50" relative="1" as="geometry">
            <mxPoint x="-120" y="-830" as="sourcePoint" />
            <mxPoint x="290" y="-730" as="targetPoint" />
            <Array as="points">
              <mxPoint x="290" y="-820" />
            </Array>
          </mxGeometry>
        </mxCell>
        <mxCell id="6UsDdSZFErcFaP8cF_HN-19" value="" style="endArrow=classic;html=1;exitX=0;exitY=0.5;exitDx=0;exitDy=0;entryX=0.5;entryY=0;entryDx=0;entryDy=0;" parent="1" source="6UsDdSZFErcFaP8cF_HN-17" target="6UsDdSZFErcFaP8cF_HN-30" edge="1">
          <mxGeometry width="50" height="50" relative="1" as="geometry">
            <mxPoint x="-120" y="-830" as="sourcePoint" />
            <mxPoint x="139" y="-793" as="targetPoint" />
            <Array as="points">
              <mxPoint x="110" y="-820" />
            </Array>
          </mxGeometry>
        </mxCell>
        <mxCell id="6UsDdSZFErcFaP8cF_HN-20" value="Sim" style="text;html=1;strokeColor=none;fillColor=none;align=center;verticalAlign=middle;whiteSpace=wrap;rounded=0;" parent="1" vertex="1">
          <mxGeometry x="250" y="-840" width="40" height="20" as="geometry" />
        </mxCell>
        <mxCell id="6UsDdSZFErcFaP8cF_HN-21" value="Não" style="text;html=1;strokeColor=none;fillColor=none;align=center;verticalAlign=middle;whiteSpace=wrap;rounded=0;" parent="1" vertex="1">
          <mxGeometry x="150" y="-840" width="40" height="20" as="geometry" />
        </mxCell>
        <mxCell id="6UsDdSZFErcFaP8cF_HN-22" value="Adicionar novo lote de vergalhão?" style="rhombus;whiteSpace=wrap;html=1;" parent="1" vertex="1">
          <mxGeometry x="230" y="-770" width="120" height="90" as="geometry" />
        </mxCell>
        <mxCell id="6UsDdSZFErcFaP8cF_HN-25" value="" style="endArrow=classic;html=1;exitX=0;exitY=0.5;exitDx=0;exitDy=0;entryX=0.5;entryY=0;entryDx=0;entryDy=0;" parent="1" source="6UsDdSZFErcFaP8cF_HN-22" target="6UsDdSZFErcFaP8cF_HN-31" edge="1">
          <mxGeometry width="50" height="50" relative="1" as="geometry">
            <mxPoint x="-50" y="-790" as="sourcePoint" />
            <mxPoint x="210" y="-650" as="targetPoint" />
            <Array as="points">
              <mxPoint x="210" y="-725" />
            </Array>
          </mxGeometry>
        </mxCell>
        <mxCell id="6UsDdSZFErcFaP8cF_HN-26" value="Não" style="text;html=1;strokeColor=none;fillColor=none;align=center;verticalAlign=middle;whiteSpace=wrap;rounded=0;" parent="1" vertex="1">
          <mxGeometry x="200" y="-750" width="40" height="20" as="geometry" />
        </mxCell>
        <mxCell id="6UsDdSZFErcFaP8cF_HN-27" value="" style="endArrow=classic;html=1;exitX=1;exitY=0.5;exitDx=0;exitDy=0;entryX=0.5;entryY=0;entryDx=0;entryDy=0;" parent="1" source="6UsDdSZFErcFaP8cF_HN-22" target="6UsDdSZFErcFaP8cF_HN-29" edge="1">
          <mxGeometry width="50" height="50" relative="1" as="geometry">
            <mxPoint x="-50" y="-790" as="sourcePoint" />
            <mxPoint x="370" y="-650" as="targetPoint" />
            <Array as="points">
              <mxPoint x="370" y="-725" />
            </Array>
          </mxGeometry>
        </mxCell>
        <mxCell id="6UsDdSZFErcFaP8cF_HN-28" value="Sim" style="text;html=1;strokeColor=none;fillColor=none;align=center;verticalAlign=middle;whiteSpace=wrap;rounded=0;" parent="1" vertex="1">
          <mxGeometry x="340" y="-750" width="40" height="20" as="geometry" />
        </mxCell>
        <mxCell id="6UsDdSZFErcFaP8cF_HN-29" value="Apontar novo lote de vergalhão no GCF" style="rounded=0;whiteSpace=wrap;html=1;" parent="1" vertex="1">
          <mxGeometry x="310" y="-665" width="120" height="30" as="geometry" />
        </mxCell>
        <mxCell id="6UsDdSZFErcFaP8cF_HN-30" value="Ordem salva com um lote de vergalhão" style="rounded=0;whiteSpace=wrap;html=1;" parent="1" vertex="1">
          <mxGeometry x="50" y="-750" width="120" height="40" as="geometry" />
        </mxCell>
        <mxCell id="6UsDdSZFErcFaP8cF_HN-31" value="Ordem salva com um lote de vergalhão" style="rounded=0;whiteSpace=wrap;html=1;" parent="1" vertex="1">
          <mxGeometry x="150" y="-665" width="120" height="40" as="geometry" />
        </mxCell>
        <mxCell id="6UsDdSZFErcFaP8cF_HN-32" value="" style="endArrow=classic;html=1;exitX=0.5;exitY=1;exitDx=0;exitDy=0;entryX=0.5;entryY=0;entryDx=0;entryDy=0;" parent="1" source="6UsDdSZFErcFaP8cF_HN-29" target="6UsDdSZFErcFaP8cF_HN-33" edge="1">
          <mxGeometry width="50" height="50" relative="1" as="geometry">
            <mxPoint x="-70" y="-715" as="sourcePoint" />
            <mxPoint x="370" y="-605" as="targetPoint" />
          </mxGeometry>
        </mxCell>
        <mxCell id="6UsDdSZFErcFaP8cF_HN-33" value="Ordem salva com mais de um lote de vergalhão" style="rounded=0;whiteSpace=wrap;html=1;" parent="1" vertex="1">
          <mxGeometry x="310" y="-605" width="120" height="50" as="geometry" />
        </mxCell>
        <mxCell id="6UsDdSZFErcFaP8cF_HN-34" value="" style="endArrow=classic;html=1;exitX=0.5;exitY=1;exitDx=0;exitDy=0;" parent="1" source="4vl9060Z3yc6cErM1NKJ-4" target="6UsDdSZFErcFaP8cF_HN-17" edge="1">
          <mxGeometry width="50" height="50" relative="1" as="geometry">
            <mxPoint x="370" y="-690" as="sourcePoint" />
            <mxPoint x="420" y="-740" as="targetPoint" />
          </mxGeometry>
        </mxCell>
        <mxCell id="6UsDdSZFErcFaP8cF_HN-35" value="" style="endArrow=classic;html=1;entryX=0.5;entryY=0;entryDx=0;entryDy=0;exitX=0.5;exitY=1;exitDx=0;exitDy=0;" parent="1" source="6UsDdSZFErcFaP8cF_HN-30" target="4vl9060Z3yc6cErM1NKJ-6" edge="1">
          <mxGeometry width="50" height="50" relative="1" as="geometry">
            <mxPoint x="370" y="-620" as="sourcePoint" />
            <mxPoint x="420" y="-670" as="targetPoint" />
            <Array as="points">
              <mxPoint x="110" y="-530" />
              <mxPoint x="220" y="-490" />
            </Array>
          </mxGeometry>
        </mxCell>
        <mxCell id="6UsDdSZFErcFaP8cF_HN-36" value="" style="endArrow=classic;html=1;exitX=0.5;exitY=1;exitDx=0;exitDy=0;entryX=0.5;entryY=0;entryDx=0;entryDy=0;" parent="1" source="6UsDdSZFErcFaP8cF_HN-31" target="4vl9060Z3yc6cErM1NKJ-6" edge="1">
          <mxGeometry width="50" height="50" relative="1" as="geometry">
            <mxPoint x="370" y="-620" as="sourcePoint" />
            <mxPoint x="420" y="-670" as="targetPoint" />
            <Array as="points">
              <mxPoint x="220" y="-540" />
            </Array>
          </mxGeometry>
        </mxCell>
        <mxCell id="6UsDdSZFErcFaP8cF_HN-37" value="" style="endArrow=classic;html=1;entryX=0.5;entryY=0;entryDx=0;entryDy=0;exitX=0.5;exitY=1;exitDx=0;exitDy=0;" parent="1" source="6UsDdSZFErcFaP8cF_HN-33" target="4vl9060Z3yc6cErM1NKJ-6" edge="1">
          <mxGeometry width="50" height="50" relative="1" as="geometry">
            <mxPoint x="370" y="-620" as="sourcePoint" />
            <mxPoint x="420" y="-670" as="targetPoint" />
            <Array as="points">
              <mxPoint x="370" y="-520" />
              <mxPoint x="220" y="-490" />
            </Array>
          </mxGeometry>
        </mxCell>
        <mxCell id="6UsDdSZFErcFaP8cF_HN-38" value="Laminar vergalhão" style="rounded=0;whiteSpace=wrap;html=1;" parent="1" vertex="1">
          <mxGeometry x="580" y="-910" width="120" height="30" as="geometry" />
        </mxCell>
        <mxCell id="6UsDdSZFErcFaP8cF_HN-39" value="Máquina parou?" style="rhombus;whiteSpace=wrap;html=1;" parent="1" vertex="1">
          <mxGeometry x="600" y="-845" width="80" height="60" as="geometry" />
        </mxCell>
        <mxCell id="6UsDdSZFErcFaP8cF_HN-40" value="" style="endArrow=classic;html=1;exitX=1;exitY=0.5;exitDx=0;exitDy=0;entryX=0.5;entryY=0;entryDx=0;entryDy=0;" parent="1" source="6UsDdSZFErcFaP8cF_HN-39" target="6UsDdSZFErcFaP8cF_HN-44" edge="1">
          <mxGeometry width="50" height="50" relative="1" as="geometry">
            <mxPoint x="300" y="-825" as="sourcePoint" />
            <mxPoint x="710" y="-725" as="targetPoint" />
            <Array as="points">
              <mxPoint x="710" y="-815" />
            </Array>
          </mxGeometry>
        </mxCell>
        <mxCell id="6UsDdSZFErcFaP8cF_HN-41" value="" style="endArrow=classic;html=1;exitX=0;exitY=0.5;exitDx=0;exitDy=0;entryX=0.5;entryY=0;entryDx=0;entryDy=0;" parent="1" source="6UsDdSZFErcFaP8cF_HN-39" target="6UsDdSZFErcFaP8cF_HN-50" edge="1">
          <mxGeometry width="50" height="50" relative="1" as="geometry">
            <mxPoint x="300" y="-825" as="sourcePoint" />
            <mxPoint x="559" y="-788" as="targetPoint" />
            <Array as="points">
              <mxPoint x="530" y="-815" />
            </Array>
          </mxGeometry>
        </mxCell>
        <mxCell id="6UsDdSZFErcFaP8cF_HN-42" value="Sim" style="text;html=1;strokeColor=none;fillColor=none;align=center;verticalAlign=middle;whiteSpace=wrap;rounded=0;" parent="1" vertex="1">
          <mxGeometry x="670" y="-835" width="40" height="20" as="geometry" />
        </mxCell>
        <mxCell id="6UsDdSZFErcFaP8cF_HN-43" value="Não" style="text;html=1;strokeColor=none;fillColor=none;align=center;verticalAlign=middle;whiteSpace=wrap;rounded=0;" parent="1" vertex="1">
          <mxGeometry x="570" y="-835" width="40" height="20" as="geometry" />
        </mxCell>
        <mxCell id="6UsDdSZFErcFaP8cF_HN-44" value="Adicionar novo lote de vergalhão?" style="rhombus;whiteSpace=wrap;html=1;" parent="1" vertex="1">
          <mxGeometry x="650" y="-765" width="120" height="90" as="geometry" />
        </mxCell>
        <mxCell id="6UsDdSZFErcFaP8cF_HN-45" value="" style="endArrow=classic;html=1;exitX=0;exitY=0.5;exitDx=0;exitDy=0;entryX=0.5;entryY=0;entryDx=0;entryDy=0;" parent="1" source="6UsDdSZFErcFaP8cF_HN-44" target="6UsDdSZFErcFaP8cF_HN-51" edge="1">
          <mxGeometry width="50" height="50" relative="1" as="geometry">
            <mxPoint x="370" y="-785" as="sourcePoint" />
            <mxPoint x="630" y="-645" as="targetPoint" />
            <Array as="points">
              <mxPoint x="630" y="-720" />
            </Array>
          </mxGeometry>
        </mxCell>
        <mxCell id="6UsDdSZFErcFaP8cF_HN-46" value="Não" style="text;html=1;strokeColor=none;fillColor=none;align=center;verticalAlign=middle;whiteSpace=wrap;rounded=0;" parent="1" vertex="1">
          <mxGeometry x="620" y="-745" width="40" height="20" as="geometry" />
        </mxCell>
        <mxCell id="6UsDdSZFErcFaP8cF_HN-47" value="" style="endArrow=classic;html=1;exitX=1;exitY=0.5;exitDx=0;exitDy=0;entryX=0.5;entryY=0;entryDx=0;entryDy=0;" parent="1" source="6UsDdSZFErcFaP8cF_HN-44" target="6UsDdSZFErcFaP8cF_HN-49" edge="1">
          <mxGeometry width="50" height="50" relative="1" as="geometry">
            <mxPoint x="370" y="-785" as="sourcePoint" />
            <mxPoint x="790" y="-645" as="targetPoint" />
            <Array as="points">
              <mxPoint x="790" y="-720" />
            </Array>
          </mxGeometry>
        </mxCell>
        <mxCell id="6UsDdSZFErcFaP8cF_HN-48" value="Sim" style="text;html=1;strokeColor=none;fillColor=none;align=center;verticalAlign=middle;whiteSpace=wrap;rounded=0;" parent="1" vertex="1">
          <mxGeometry x="760" y="-745" width="40" height="20" as="geometry" />
        </mxCell>
        <mxCell id="6UsDdSZFErcFaP8cF_HN-49" value="Apontar novo lote de vergalhão no GCF" style="rounded=0;whiteSpace=wrap;html=1;" parent="1" vertex="1">
          <mxGeometry x="730" y="-660" width="120" height="30" as="geometry" />
        </mxCell>
        <mxCell id="6UsDdSZFErcFaP8cF_HN-50" value="Ordem salva com um lote de vergalhão" style="rounded=0;whiteSpace=wrap;html=1;" parent="1" vertex="1">
          <mxGeometry x="470" y="-745" width="120" height="40" as="geometry" />
        </mxCell>
        <mxCell id="6UsDdSZFErcFaP8cF_HN-51" value="Ordem salva com um lote de vergalhão" style="rounded=0;whiteSpace=wrap;html=1;" parent="1" vertex="1">
          <mxGeometry x="570" y="-660" width="120" height="40" as="geometry" />
        </mxCell>
        <mxCell id="6UsDdSZFErcFaP8cF_HN-52" value="" style="endArrow=classic;html=1;exitX=0.5;exitY=1;exitDx=0;exitDy=0;entryX=0.5;entryY=0;entryDx=0;entryDy=0;" parent="1" source="6UsDdSZFErcFaP8cF_HN-49" target="6UsDdSZFErcFaP8cF_HN-53" edge="1">
          <mxGeometry width="50" height="50" relative="1" as="geometry">
            <mxPoint x="350" y="-710" as="sourcePoint" />
            <mxPoint x="790" y="-600" as="targetPoint" />
          </mxGeometry>
        </mxCell>
        <mxCell id="6UsDdSZFErcFaP8cF_HN-53" value="Ordem salva com mais de um lote de vergalhão" style="rounded=0;whiteSpace=wrap;html=1;" parent="1" vertex="1">
          <mxGeometry x="730" y="-600" width="120" height="50" as="geometry" />
        </mxCell>
        <mxCell id="6UsDdSZFErcFaP8cF_HN-54" value="" style="endArrow=classic;html=1;exitX=0.5;exitY=1;exitDx=0;exitDy=0;" parent="1" source="6UsDdSZFErcFaP8cF_HN-50" edge="1">
          <mxGeometry width="50" height="50" relative="1" as="geometry">
            <mxPoint x="790" y="-615" as="sourcePoint" />
            <mxPoint x="450" y="-320" as="targetPoint" />
            <Array as="points">
              <mxPoint x="530" y="-660" />
            </Array>
          </mxGeometry>
        </mxCell>
        <mxCell id="6UsDdSZFErcFaP8cF_HN-55" value="" style="endArrow=classic;html=1;exitX=0.5;exitY=1;exitDx=0;exitDy=0;entryX=0.567;entryY=0.073;entryDx=0;entryDy=0;entryPerimeter=0;" parent="1" source="6UsDdSZFErcFaP8cF_HN-51" target="4vl9060Z3yc6cErM1NKJ-25" edge="1">
          <mxGeometry width="50" height="50" relative="1" as="geometry">
            <mxPoint x="790" y="-615" as="sourcePoint" />
            <mxPoint x="450" y="-320" as="targetPoint" />
            <Array as="points">
              <mxPoint x="630" y="-580" />
            </Array>
          </mxGeometry>
        </mxCell>
        <mxCell id="6UsDdSZFErcFaP8cF_HN-56" value="" style="endArrow=classic;html=1;exitX=0.5;exitY=1;exitDx=0;exitDy=0;entryX=0.629;entryY=0.12;entryDx=0;entryDy=0;entryPerimeter=0;" parent="1" source="6UsDdSZFErcFaP8cF_HN-53" target="4vl9060Z3yc6cErM1NKJ-25" edge="1">
          <mxGeometry width="50" height="50" relative="1" as="geometry">
            <mxPoint x="790" y="-615" as="sourcePoint" />
            <mxPoint x="450" y="-320" as="targetPoint" />
            <Array as="points">
              <mxPoint x="790" y="-515" />
              <mxPoint x="650" y="-430" />
            </Array>
          </mxGeometry>
        </mxCell>
        <mxCell id="6UsDdSZFErcFaP8cF_HN-57" value="" style="endArrow=classic;html=1;exitX=0.5;exitY=1;exitDx=0;exitDy=0;entryX=0.5;entryY=0;entryDx=0;entryDy=0;" parent="1" source="6UsDdSZFErcFaP8cF_HN-38" target="6UsDdSZFErcFaP8cF_HN-39" edge="1">
          <mxGeometry width="50" height="50" relative="1" as="geometry">
            <mxPoint x="370" y="-690" as="sourcePoint" />
            <mxPoint x="420" y="-740" as="targetPoint" />
          </mxGeometry>
        </mxCell>
        <mxCell id="KP5nR9XHb_QmgsPb0Zhl-1" value="Apontar lote atual do vergalhão no GCF" style="rounded=0;whiteSpace=wrap;html=1;" vertex="1" parent="1">
          <mxGeometry x="340" y="-1040" width="120" height="30" as="geometry" />
        </mxCell>
      </root>
    </mxGraphModel>
  </diagram>
</mxfile>
